<svg width="44" height="44" viewBox="0 0 44 44" fill="none" xmlns="http://www.w3.org/2000/svg">
<path fill-rule="evenodd" clip-rule="evenodd" d="M12.4863 20.1594C12.1195 19.7925 12.1195 19.1979 12.4863 18.831L21.2532 10.0641C21.4293 9.88785 21.6682 9.78891 21.9173 9.78891C22.1664 9.78891 22.4054 9.88785 22.5816 10.0641L31.3486 18.831C31.7154 19.1979 31.7154 19.7925 31.3486 20.1594C30.9818 20.5262 30.387 20.5262 30.0202 20.1594L22.8567 12.996L22.8567 33.2719C22.8567 33.7906 22.4361 34.2112 21.9173 34.2112C21.3986 34.2112 20.978 33.7906 20.978 33.2719L20.978 12.996L13.8147 20.1594C13.4479 20.5262 12.8531 20.5262 12.4863 20.1594Z" fill="white"/>
</svg>
