<svg width="24" height="25" viewBox="0 0 24 25" fill="none" xmlns="http://www.w3.org/2000/svg">
<path fill-rule="evenodd" clip-rule="evenodd" d="M21.5 13C21.5 17.9706 17.4706 22 12.5 22C7.52944 22 3.5 17.9706 3.5 13C3.5 8.02944 7.52944 4 12.5 4C17.4706 4 21.5 8.02944 21.5 13ZM8.09283 14.5C8.03156 14.0086 8 13.508 8 13C8 12.492 8.03157 11.9914 8.09285 11.5H5.15003C5.05165 11.9847 5 12.4863 5 13C5 13.5137 5.05165 14.0153 5.15003 14.5H8.09283ZM8.37804 16H5.62407C6.5072 18.0213 8.25547 19.578 10.4008 20.2023C9.47117 18.9652 8.77509 17.5426 8.37804 16ZM9.93482 16H15.0652C14.5717 17.6582 13.6796 19.1447 12.5 20.3485C11.3204 19.1447 10.4283 17.6582 9.93482 16ZM15.3937 14.5H9.60634C9.53627 14.0101 9.5 13.5093 9.5 13C9.5 12.4907 9.53627 11.9899 9.60634 11.5H15.3937C15.4637 11.9899 15.5 12.4907 15.5 13C15.5 13.5093 15.4637 14.0101 15.3937 14.5ZM16.9072 14.5C16.9684 14.0086 17 13.508 17 13C17 12.492 16.9684 11.9914 16.9072 11.5H19.85C19.9484 11.9847 20 12.4863 20 13C20 13.5137 19.9484 14.0153 19.85 14.5H16.9072ZM16.622 16H19.3759C18.4928 18.0213 16.7445 19.578 14.5992 20.2023C15.5288 18.9652 16.2249 17.5426 16.622 16ZM12.5 5.65153C11.3204 6.85528 10.4283 8.34181 9.93482 10H15.0652C14.5717 8.34181 13.6796 6.85528 12.5 5.65153ZM14.5992 5.79773C15.5288 7.03479 16.2249 8.45737 16.6219 10H19.3759C18.4928 7.97873 16.7445 6.42195 14.5992 5.79773ZM5.62407 10H8.37806C8.77511 8.45737 9.4712 7.03479 10.4008 5.79773C8.25548 6.42195 6.5072 7.97873 5.62407 10Z" fill="white"/>
</svg>
